<svg width="0" height="0" class="hidden d-none">
  <symbol fill="none" xmlns="http://www.w3.org/2000/svg" viewBox="0 0 894 1234" id="map-navigation-icon">
    <path d="M446.755 0C200.466 0 0.0966797 200.369 0.0966797 446.655C0.0966797 752.304 399.812 1201.01 416.83 1219.97C432.815 1237.77 460.723 1237.74 476.679 1219.97C493.697 1201.01 893.412 752.304 893.412 446.655C893.408 200.369 693.041 0 446.755 0ZM446.755 1131.49C312.23 971.691 80.5316 656.429 80.5316 446.66C80.5316 244.72 244.817 80.4349 446.755 80.4349C648.692 80.4349 812.977 244.72 812.977 446.658C812.975 656.436 581.313 971.64 446.755 1131.49Z" fill="currentColor"></path>
    <path d="M446.754 221.931C322.841 221.931 222.032 322.742 222.032 446.656C222.032 570.57 322.843 671.381 446.754 671.381C570.666 671.381 671.474 570.57 671.474 446.656C671.474 322.742 570.666 221.931 446.754 221.931ZM446.754 590.946C367.192 590.946 302.467 526.219 302.467 446.656C302.467 367.093 367.194 302.366 446.754 302.366C526.315 302.366 591.042 367.093 591.042 446.656C591.042 526.219 526.315 590.946 446.754 590.946Z" fill="currentColor"></path>
  </symbol>
  <symbol fill="none" xmlns="http://www.w3.org/2000/svg" viewBox="0 0 587 1096" id="right-arrow-icon">
    <path d="M484.167 548.105L13.5916 1024.38C-4.16601 1042.19 -4.16601 1068.9 13.5916 1082.25C31.3491 1100.06 57.9855 1100.06 71.3037 1082.25L572.955 579.263C590.713 561.458 590.713 534.751 572.955 521.397L71.3037 13.9582C53.5461 -3.84665 26.9098 -3.84665 13.5916 13.9582C-4.16601 31.7631 -4.16601 54.0192 13.5916 71.824L484.167 548.105Z" fill="currentColor"></path>
  </symbol>
  <symbol fill="none" xmlns="http://www.w3.org/2000/svg" viewBox="0 0 941 942" id="dark-light-icon">
    <path d="M637.284 303.835C594.964 261.516 535.219 234.132 470.495 234.132C405.77 234.132 346.025 260.271 303.705 303.835C261.386 346.155 234.002 405.9 234.002 470.624C234.002 535.349 261.386 595.094 303.705 637.414C346.025 679.733 405.77 707.117 470.495 707.117C535.219 707.117 594.964 680.978 637.284 637.414C679.603 595.094 706.987 535.349 706.987 470.624C706.987 405.9 680.848 346.155 637.284 303.835Z" fill="currentColor"></path>
    <path d="M470.495 160.696C487.921 160.696 502.857 145.759 502.857 128.333V32.492C502.857 15.0662 487.921 0.129883 470.495 0.129883C453.069 0.129883 438.133 15.0662 438.133 32.492V128.333C438.133 145.759 453.069 160.696 470.495 160.696Z" fill="currentColor"></path>
    <path d="M735.615 251.559L804.073 183.1C816.52 170.653 816.52 150.738 804.073 138.291C791.626 125.844 771.711 125.844 759.264 138.291L690.806 206.75C678.359 219.196 678.359 239.112 690.806 251.559C702.008 264.005 721.923 264.005 735.615 251.559Z" fill="currentColor"></path>
    <path d="M908.628 438.264H812.786C795.361 438.264 780.424 453.2 780.424 470.626C780.424 488.051 795.361 502.988 812.786 502.988H908.628C926.054 502.988 940.99 488.051 940.99 470.626C940.99 453.2 926.054 438.264 908.628 438.264Z" fill="currentColor"></path>
    <path d="M734.37 689.69C721.923 677.243 702.008 677.243 689.561 689.69C677.114 702.137 677.114 722.052 689.561 734.499L758.02 802.957C770.466 815.404 790.382 815.404 802.829 802.957C815.275 790.51 815.275 770.595 802.829 758.148L734.37 689.69Z" fill="currentColor"></path>
    <path d="M470.495 780.554C453.069 780.554 438.133 795.491 438.133 812.916V908.758C438.133 926.184 453.069 941.12 470.495 941.12C487.921 941.12 502.857 926.184 502.857 908.758V812.916C502.857 795.491 487.921 780.554 470.495 780.554Z" fill="currentColor"></path>
    <path d="M205.375 689.69L136.917 758.148C124.47 770.595 124.47 790.51 136.917 802.957C149.364 815.404 169.279 815.404 181.726 802.957L250.184 734.499C262.631 722.052 262.631 702.137 250.184 689.69C238.982 677.243 219.067 677.243 205.375 689.69Z" fill="currentColor"></path>
    <path d="M160.566 470.626C160.566 453.2 145.629 438.264 128.204 438.264H32.3621C14.9363 438.264 0 453.2 0 470.626C0 488.051 14.9363 502.988 32.3621 502.988H128.204C145.629 502.988 160.566 488.051 160.566 470.626Z" fill="currentColor"></path>
    <path d="M205.375 251.559C217.822 264.005 237.737 264.005 250.184 251.559C262.631 239.112 262.631 219.196 250.184 206.75L181.726 138.291C169.279 125.844 149.364 125.844 136.917 138.291C124.47 150.738 124.47 170.653 136.917 183.1L205.375 251.559Z" fill="currentColor"></path>
  </symbol>
  <symbol fill="none" xmlns="http://www.w3.org/2000/svg" viewBox="0 0 985 527" id="down-arrow-icon">
    <path d="M492.273 434.953L64.2734 12.559C48.2734 -3.38037 24.2734 -3.38037 12.2734 12.559C-3.72656 28.4984 -3.72656 52.4075 12.2734 64.3621L464.273 514.65C480.273 530.589 504.273 530.589 516.273 514.65L972.273 64.3621C988.273 48.4227 988.273 24.5136 972.273 12.559C956.273 -3.38037 936.273 -3.38037 920.273 12.559L492.273 434.953Z" fill="currentColor"></path>
  </symbol>
  <symbol fill="none" xmlns="http://www.w3.org/2000/svg" viewBox="0 0 985 527" id="down-top-icon">
    <path d="M492.273 92.256L920.273 514.65C936.273 530.589 960.273 530.589 972.273 514.65C988.273 498.711 988.273 474.801 972.273 462.847L520.273 12.559C504.273 -3.38036 480.273 -3.38036 468.273 12.559L12.2735 462.847C-3.72653 478.786 -3.72653 502.695 12.2735 514.65C28.2735 530.589 48.2734 530.589 64.2734 514.65L492.273 92.256Z" fill="currentColor"></path>
  </symbol>
  <symbol fill="none" xmlns="http://www.w3.org/2000/svg" viewBox="0 0 592 1096" id="left-arrow-icon">
    <path d="M103.251 548.105L577.842 71.824C595.751 54.0191 595.751 27.3118 577.842 13.9582C559.933 -3.84673 533.069 -3.84673 519.637 13.9582L13.7053 516.946C-4.20384 534.751 -4.20384 561.458 13.7053 574.812L519.637 1082.25C537.546 1100.06 564.41 1100.06 577.842 1082.25C595.751 1064.45 595.751 1042.19 577.842 1024.38L103.251 548.105Z" fill="currentColor"></path>
  </symbol>
</svg>