<svg xmlns="http://www.w3.org/2000/svg" width="40" height="40" viewBox="0 0 40 40">
  <g id="f1" transform="translate(-13671.502 -12631)">
    <rect id="Rectangle_91" data-name="Rectangle 91" width="40" height="40" transform="translate(13671.502 12631)" fill="none"/>
    <g id="Group_1_" data-name="Group (1)" transform="translate(13672 12631)">
      <path id="Path_4783" data-name="Path 4783" d="M29.625,24.457a1.62,1.62,0,0,0-1.955,1.237,1.667,1.667,0,0,0,1.206,2c5.048,1.228,6.878,3.045,6.878,3.968,0,1.992-6.481,5-16.251,5s-16.251-3.008-16.251-5c0-.923,1.832-2.74,6.876-3.968a1.666,1.666,0,0,0,1.206-2,1.62,1.62,0,0,0-1.955-1.237C3.33,25.927,0,28.487,0,31.667,0,37.137,9.813,40,19.5,40S39,37.137,39,31.667C39,28.487,35.674,25.927,29.625,24.457Z" fill="#fff"/>
      <path id="Path_4784" data-name="Path 4784" d="M19.5,13.333a1.667,1.667,0,1,0-1.625-1.667A1.647,1.647,0,0,0,19.5,13.333Z" fill="#fff"/>
      <path id="Path_4785" data-name="Path 4785" d="M17.385,31.055l.661,1.357a1.609,1.609,0,0,0,2.909,0l1.4-2.873A116,116,0,0,1,28.2,19.376l.926-1.5a11.874,11.874,0,0,0-2.049-14.92,11.207,11.207,0,0,0-8.9-2.882,11.6,11.6,0,0,0-9.935,9.93,11.87,11.87,0,0,0,2.1,8.558A84.4,84.4,0,0,1,17.385,31.055ZM19.5,6.668a5,5,0,1,1-4.875,5A4.945,4.945,0,0,1,19.5,6.668Z" fill="#fff"/>
    </g>
  </g>
</svg>
