<svg id="f3" xmlns="http://www.w3.org/2000/svg" width="40" height="40" viewBox="0 0 40 40">
  <path id="Path_4788" data-name="Path 4788" d="M30.625,34.141V0H0V34.141A5.866,5.866,0,0,0,5.859,40H36.484A5.866,5.866,0,0,1,30.625,34.141ZM14.141,35.234H4.688V32.891h9.453Zm0-4.688H4.688V18.828h9.453Zm0-14.062H4.688V14.141h9.453Zm11.8,18.75H16.484V32.891h9.453Zm0-4.688H16.484V28.2h9.453Zm0-4.687H16.484V23.516h9.453Zm0-4.687H16.484V18.828h9.453Zm0-4.687H16.484V14.141h9.453Zm0-4.687H4.688V9.453h21.25Zm0-4.688H4.688V4.766h21.25Z" fill="#fff"/>
  <path id="Path_4789" data-name="Path 4789" d="M37.656,2.344V33.75H35.313V2.344H32.969v31.8a3.516,3.516,0,1,0,7.031,0V2.344Z" fill="#fff"/>
  <path id="Path_4790" data-name="Path 4790" d="M11.8,21.172H7.031V28.2H11.8Z" fill="#fff"/>
</svg>
