<?xml version="1.0" encoding="utf-8"?>
<!-- Generator: Adobe Illustrator 21.0.0, SVG Export Plug-In . SVG Version: 6.00 Build 0)  -->
<svg version="1.1" id="Capa_1" xmlns="http://www.w3.org/2000/svg" xmlns:xlink="http://www.w3.org/1999/xlink" x="0px" y="0px"
	 viewBox="0 0 57 57" style="enable-background:new 0 0 57 57;" xml:space="preserve">
<g>
	<path d="M36.2,40c2,2,3.9,3.9,5.7,5.7c2.6,2.6,5.2,5.2,7.7,7.7c0.1,0.1,0.2,0.2,0.3,0.3c0.4,0.4,0.5,0.9,0.3,1.4
		c-0.2,0.5-0.7,0.7-1.2,0.7c-2,0-4,0-6,0c-2.7,0-5.4,0-8.1,0c-0.6,0-1-0.2-1.4-0.6c-4.7-4.7-9.4-9.4-14.1-14.1
		c-0.8-0.8-0.8-1.4,0-2.2c4.7-4.7,9.4-9.4,14.1-14.1c0.4-0.4,0.8-0.6,1.4-0.6c4.6,0,9.3,0,13.9,0c0.6,0,1.2,0.1,1.5,0.7
		c0.3,0.7-0.1,1.2-0.5,1.6c-4.3,4.3-8.6,8.6-12.9,12.9C36.7,39.7,36.5,39.8,36.2,40z M27.2,45.4c6.3-6.3,12.5-12.5,18.7-18.7
		c0,0-0.1,0-0.2,0c-3.4,0-6.8,0-10.3,0c-0.3,0-0.6,0.2-0.8,0.4c-4.2,4.2-8.4,8.3-12.5,12.5c-0.1,0.1-0.3,0.3-0.4,0.4
		C23.7,41.9,25.5,43.7,27.2,45.4z M34.6,42c-1.8,1.8-3.6,3.6-5.5,5.5c1.8,1.8,3.7,3.7,5.6,5.6c0.3,0.3,0.6,0.4,1,0.4
		c3.3,0,6.6,0,9.8,0c0.2,0,0.4,0,0.5,0C42.2,49.6,38.4,45.7,34.6,42z"/>
	<path d="M49.2,2.5C49.1,2.7,49,3,48.8,3.2c-0.1,0.2-0.3,0.4-0.5,0.5C37.7,14.4,27.1,25,16.4,35.6c-1,1-1.5,1-2.5,0
		c-2.2-2.2-4.4-4.4-6.6-6.6c-0.9-0.9-0.9-1.4,0-2.3c8.3-8.3,16.6-16.6,24.9-24.9c0.5-0.5,1-0.7,1.6-0.7c4.6,0,9.3,0,13.9,0
		C48.6,1.2,49.2,1.6,49.2,2.5z M15,33.2c9.9-9.9,19.8-19.8,29.6-29.6c-3.3,0-6.7,0-10.2,0c-0.4,0-0.7,0.1-1.1,0.4
		C25.6,11.8,17.8,19.6,10,27.4c-0.2,0.2-0.3,0.3-0.4,0.4C11.5,29.7,13.3,31.5,15,33.2z"/>
</g>
</svg>
