<?xml version="1.0" encoding="utf-8"?>
<!-- Generator: Adobe Illustrator 21.0.0, SVG Export Plug-In . SVG Version: 6.00 Build 0)  -->
<svg version="1.1" id="Capa_1" xmlns="http://www.w3.org/2000/svg" xmlns:xlink="http://www.w3.org/1999/xlink" x="0px" y="0px"
	 viewBox="0 0 57 57" style="enable-background:new 0 0 57 57;" xml:space="preserve">
<g>
	<path d="M44.2,6.3C46,5.1,47.9,5,49.7,6.3c1.9,1.4,2.4,4,1.2,6c-0.2,0.3-0.2,0.6,0,0.9c3.3,5,4.9,10.4,4.7,16.4
		c-0.4,12-9.2,22.8-21,25.3C20.2,58.1,6.1,49.5,2.3,35.3C-1.2,22.2,5.9,8.2,18.6,3.4C27.5,0,36,0.9,43.9,6.2
		C44,6.2,44.1,6.3,44.2,6.3z M49,14.1c-0.1,0-0.2,0-0.3,0.1c-1.8,0.7-3.4,0.4-4.8-1c-1.4-1.3-1.7-3-1.1-4.8c0.1-0.4-0.1-0.6-0.3-0.8
		c-6.7-4.4-14-5.2-21.6-3C8.7,8.3,1.4,21,3.9,33.4C6,43.6,14,51.4,24.3,53.1c9.6,1.6,17.5-1.5,23.7-9c4.9-5.9,6.4-12.8,5.1-20.3
		C52.5,20.3,51.1,17,49,14.1z M46.9,12.8c1.6,0,2.9-1.2,2.9-2.8c0-1.6-1.2-2.9-2.8-2.9c-1.6,0-2.9,1.3-2.9,2.8
		C44.1,11.5,45.4,12.8,46.9,12.8z"/>
	<path d="M41.1,28.6c0,7-5.6,12.5-12.6,12.5c-6.9,0-12.4-5.6-12.4-12.5c0-6.9,5.6-12.5,12.6-12.5C35.5,16.1,41.1,21.7,41.1,28.6z
		 M18.2,28.5c0,5.7,4.7,10.4,10.4,10.4c5.7,0,10.4-4.7,10.3-10.4c0-5.7-4.6-10.3-10.4-10.3C22.8,18.2,18.2,22.8,18.2,28.5z"/>
</g>
</svg>
