<svg xmlns="http://www.w3.org/2000/svg" width="40" height="38" viewBox="0 0 40 38">
  <g id="f2" transform="translate(-13722 -12630.581)">
    <rect id="Rectangle_90" data-name="Rectangle 90" width="40" height="38" transform="translate(13722 12630.581)" fill="none"/>
    <g id="Group_2_" data-name="Group (2)" transform="translate(13722 12630.203)">
      <path id="Path_4786" data-name="Path 4786" d="M30.468,32.764l-6.743-4.412a.7.7,0,0,0-.929.148l-1.963,2.478a2.131,2.131,0,0,1-2.7.546l-.363-.2a23.68,23.68,0,0,1-6.176-4.75,23.3,23.3,0,0,1-4.84-6.063l-.2-.356a2.04,2.04,0,0,1,.556-2.647l2.523-1.928a.673.673,0,0,0,.151-.912L5.292,8.052a.7.7,0,0,0-.929-.205L1.542,9.507A2.672,2.672,0,0,0,.3,11.078C-.627,14.39.152,20.19,9.126,29s14.881,9.576,18.259,8.666a2.708,2.708,0,0,0,1.6-1.22l1.691-2.769A.67.67,0,0,0,30.468,32.764Z" fill="#fff"/>
      <path id="Path_4787" data-name="Path 4787" d="M39.886.909A.393.393,0,0,0,39.607.8H9.671a.392.392,0,0,0-.279.112.378.378,0,0,0-.114.274V11.392l1.7,2.5a2.063,2.063,0,0,1-.462,2.8L7.992,18.616a.661.661,0,0,0-.184.857l.206.368A17.676,17.676,0,0,0,10.4,23.252H39.607A.387.387,0,0,0,40,22.875V1.183A.377.377,0,0,0,39.886.909Zm-20.3,12.754v0l-7.319,7.7a.724.724,0,0,1-1.01.035.692.692,0,0,1-.035-.991l7.319-7.693a.724.724,0,0,1,1.01-.035A.692.692,0,0,1,19.587,13.663Zm5.052-.553a2.4,2.4,0,0,1-1.429-.463L11.269,3.759a.694.694,0,0,1-.136-.985.725.725,0,0,1,1-.133l11.936,8.888a.979.979,0,0,0,1.133,0l11.94-8.888a.724.724,0,0,1,1,.135.693.693,0,0,1-.138.983L26.068,12.647A2.4,2.4,0,0,1,24.639,13.11Zm13.426,8.28a.724.724,0,0,1-1.01-.034l-7.318-7.7a.692.692,0,0,1,.058-.969.724.724,0,0,1,.989.016L38.1,20.4A.692.692,0,0,1,38.065,21.39Z" fill="#fff"/>
    </g>
  </g>
</svg>
