<?xml version="1.0" encoding="utf-8"?>
<!-- Generator: Adobe Illustrator 21.0.0, SVG Export Plug-In . SVG Version: 6.00 Build 0)  -->
<svg version="1.1" id="Layer_1" xmlns="http://www.w3.org/2000/svg" xmlns:xlink="http://www.w3.org/1999/xlink" x="0px" y="0px"
	 viewBox="0 0 25 25" style="enable-background:new 0 0 25 25;" xml:space="preserve">
<title>instagram</title>
<g>
	<path d="M12.5,6C9,6,6.1,8.9,6.1,12.4s2.9,6.4,6.4,6.4s6.4-2.9,6.4-6.4S16,6,12.5,6L12.5,6z M12.5,16.3c-2.2,0-3.9-1.8-3.9-3.9
		s1.8-3.9,3.9-3.9s3.9,1.8,3.9,3.9S14.7,16.3,12.5,16.3z M17.7,0.2H7.3c-3.9,0-7.1,3.2-7.1,7.1v10.4c0,3.9,3.2,7.1,7.1,7.1h10.4
		c3.9,0,7.1-3.2,7.1-7.1V7.2C24.8,3.3,21.6,0.2,17.7,0.2L17.7,0.2z M22.3,17.6c0,2.5-2.1,4.6-4.6,4.6H7.3c-2.5,0-4.6-2.1-4.6-4.6
		V7.2c0-2.5,2.1-4.6,4.6-4.6h10.4c2.5,0,4.6,2.1,4.6,4.6L22.3,17.6L22.3,17.6z M18.9,4.2c-0.9,0-1.6,0.7-1.6,1.7
		c0,0.9,0.7,1.7,1.7,1.7c0.9,0,1.7-0.7,1.7-1.7S19.9,4.2,18.9,4.2z"/>
</g>
</svg>
