<?xml version="1.0" encoding="utf-8"?>
<!-- Generator: Adobe Illustrator 21.0.0, SVG Export Plug-In . SVG Version: 6.00 Build 0)  -->
<svg version="1.1" id="Layer_1" xmlns="http://www.w3.org/2000/svg" xmlns:xlink="http://www.w3.org/1999/xlink" x="0px" y="0px"
	 viewBox="0 0 25 25" style="enable-background:new 0 0 25 25;" xml:space="preserve">
<title>twitter</title>
<path d="M24.4,5.1c-0.9,0.4-1.8,0.6-2.8,0.8c1-0.6,1.8-1.6,2.1-2.7c-0.9,0.6-2,1-3.1,1.2c-0.9-0.9-2.1-1.5-3.5-1.5
	c-2.7,0-4.9,2.2-4.9,4.9c0,0.4,0,0.8,0.1,1.1c-4-0.2-7.6-2.1-10-5.1C1.8,4.4,1.6,5.2,1.6,6.1c0,1.7,0.9,3.2,2.2,4
	c-0.8,0-1.5-0.2-2.2-0.6v0.1c0,2.4,1.7,4.3,3.9,4.8c-0.4,0.1-0.8,0.2-1.3,0.2c-0.3,0-0.6,0-0.9-0.1c0.6,1.9,2.4,3.3,4.5,3.4
	C6.1,19.2,4,20,1.8,20c-0.4,0-0.8,0-1.2-0.1c2.2,1.4,4.7,2.2,7.4,2.2c8.9,0,13.8-7.4,13.8-13.8c0-0.2,0-0.4,0-0.6
	C22.9,6.9,23.6,6,24.4,5.1L24.4,5.1z"/>
</svg>
