<?xml version="1.0" encoding="utf-8"?>
<!-- Generator: Adobe Illustrator 21.0.0, SVG Export Plug-In . SVG Version: 6.00 Build 0)  -->
<svg version="1.1" id="Layer_1" xmlns="http://www.w3.org/2000/svg" xmlns:xlink="http://www.w3.org/1999/xlink" x="0px" y="0px"
	 viewBox="0 0 25 25" style="enable-background:new 0 0 25 25;" xml:space="preserve">
<title>behance</title>
<g>
	<path d="M22.3,7h-6.1V5.5h6.1V7z M12.1,13.2c0.4,0.6,0.6,1.4,0.6,2.2c0,0.9-0.2,1.7-0.7,2.4c-0.3,0.5-0.6,0.9-1.1,1.2
		c-0.5,0.4-1.1,0.6-1.7,0.8C8.5,19.9,7.8,20,7.1,20H0.3V4.9h7.3c1.8,0,3.2,0.6,3.9,1.6c0.5,0.6,0.7,1.4,0.7,2.3S12,10.5,11.5,11
		c-0.3,0.3-0.6,0.6-1.2,0.9C11.2,12.2,11.8,12.6,12.1,13.2z M3.8,10.8H7c0.7,0,1.2-0.1,1.6-0.4C9,10.2,9.2,9.8,9.2,9.1
		S8.9,7.9,8.4,7.7C7.9,7.6,7.3,7.5,6.6,7.5H3.8V10.8z M9.5,15.2c0-0.8-0.3-1.3-1-1.6c-0.4-0.2-0.9-0.3-1.5-0.3H3.8v4H7
		c0.7,0,1.2-0.1,1.5-0.3C9.2,16.8,9.5,16.2,9.5,15.2L9.5,15.2z M24.6,12.8c0.1,0.5,0.1,1.2,0.1,2.2h-7.9c0,1.1,0.4,1.9,1.1,2.3
		c0.4,0.3,1,0.4,1.6,0.4s1.2-0.2,1.6-0.5c0.2-0.2,0.4-0.4,0.6-0.7h2.9c-0.1,0.6-0.4,1.3-1.1,2c-1,1.1-2.3,1.6-4.1,1.6
		c-1.4,0-2.7-0.4-3.8-1.3s-1.7-2.3-1.7-4.4c0-1.9,0.5-3.3,1.5-4.3s2.3-1.5,3.9-1.5c0.9,0,1.8,0.2,2.6,0.5c0.8,0.3,1.4,0.9,1.9,1.6
		C24.2,11.2,24.5,11.9,24.6,12.8z M21.7,13.1c-0.1-0.8-0.3-1.3-0.8-1.7s-1-0.6-1.7-0.6s-1.3,0.2-1.7,0.6c-0.4,0.4-0.7,1-0.8,1.7
		H21.7L21.7,13.1z"/>
</g>
</svg>
