<?xml version="1.0" encoding="utf-8"?>
<!-- Generator: Adobe Illustrator 21.0.0, SVG Export Plug-In . SVG Version: 6.00 Build 0)  -->
<svg version="1.1" id="Layer_1" xmlns="http://www.w3.org/2000/svg" xmlns:xlink="http://www.w3.org/1999/xlink" x="0px" y="0px"
	 viewBox="0 0 25 25" style="enable-background:new 0 0 25 25;" xml:space="preserve">
<title>dribbble</title>
<path d="M22.8,6.5c-1.1-1.8-2.5-3.3-4.3-4.3c-1.8-1.1-3.8-1.6-6-1.6s-4.2,0.5-6,1.6S3.2,4.6,2.2,6.5c-1.1,1.8-1.6,3.8-1.6,6
	s0.5,4.2,1.6,6c1.1,1.8,2.5,3.3,4.3,4.3c1.8,1.1,3.8,1.6,6,1.6s4.2-0.5,6-1.6s3.3-2.5,4.3-4.3c1.1-1.8,1.6-3.8,1.6-6
	S23.9,8.3,22.8,6.5L22.8,6.5z M12.5,2.5c2.4,0,4.5,0.8,6.4,2.3c-1.1,1.4-2.7,2.6-4.9,3.5c-1.2-2.2-2.5-4-3.9-5.4
	C10.9,2.6,11.7,2.5,12.5,2.5L12.5,2.5z M4.8,6.2c0.9-1.1,2-2,3.2-2.7c1.4,1.4,2.8,3.2,4,5.4C9.6,9.6,7.1,10,4.4,10
	c-0.7,0-1.2,0-1.6,0C3.2,8.6,3.9,7.4,4.8,6.2L4.8,6.2z M2.5,12.5c0-0.1,0-0.1,0-0.2c0-0.1,0-0.2,0-0.2c0.3,0,0.8,0,1.4,0
	c3.2,0,6.1-0.4,8.9-1.3c0.2,0.4,0.5,0.9,0.7,1.5c-1.6,0.3-3.2,1.2-4.8,2.6c-1.7,1.4-2.9,2.8-3.6,4.3C3.4,17.1,2.5,14.9,2.5,12.5z
	 M12.5,22.4c-2.3,0-4.3-0.7-6.1-2.1c0.7-1.4,1.8-2.8,3.3-4.1s3-2.1,4.4-2.4c0.9,2.5,1.5,5.2,1.9,7.9C14.8,22.2,13.7,22.4,12.5,22.4z
	 M21,17.7c-0.8,1.3-1.8,2.3-3.1,3.1c-0.3-2.5-0.8-4.9-1.6-7.3c1.1-0.1,2.1-0.1,3-0.1c1,0,2,0,3.2,0.1C22.2,15,21.8,16.4,21,17.7
	L21,17.7z M19.5,11.7c-1.4,0-2.7,0.1-3.8,0.2c-0.3-0.8-0.6-1.4-0.8-1.9c2.4-1.1,4.1-2.5,5.2-4c1.4,1.7,2.2,3.6,2.3,5.8
	C21.4,11.7,20.5,11.7,19.5,11.7L19.5,11.7z"/>
</svg>
