<?xml version="1.0" encoding="utf-8"?>
<!-- Generator: Adobe Illustrator 21.0.0, SVG Export Plug-In . SVG Version: 6.00 Build 0)  -->
<svg version="1.1" id="Bold" xmlns="http://www.w3.org/2000/svg" xmlns:xlink="http://www.w3.org/1999/xlink" x="0px" y="0px"
	 viewBox="0 0 25 25" style="enable-background:new 0 0 25 25;" xml:space="preserve">
<g>
	<path d="M24.6,24.6L24.6,24.6L24.6,24.6l0-8.8c0-4.3-0.9-7.7-6-7.7c-2.4,0-4.1,1.3-4.7,2.6h-0.1V8.5H9v16.1h5v-8
		c0-2.1,0.4-4.1,3-4.1c2.6,0,2.6,2.4,2.6,4.3v7.8L24.6,24.6z"/>
	<path d="M0.8,8.5h5v16.1h-5L0.8,8.5z"/>
	<path d="M3.3,0.4c-1.6,0-2.9,1.3-2.9,2.9s1.3,2.9,2.9,2.9s2.9-1.3,2.9-2.9C6.2,1.7,4.9,0.4,3.3,0.4z"/>
</g>
</svg>
