<?xml version="1.0" encoding="utf-8"?>
<!-- Generator: Adobe Illustrator 21.0.0, SVG Export Plug-In . SVG Version: 6.00 Build 0)  -->
<svg version="1.1" id="Layer_1" xmlns="http://www.w3.org/2000/svg" xmlns:xlink="http://www.w3.org/1999/xlink" x="0px" y="0px"
	 viewBox="0 0 25 25" style="enable-background:new 0 0 25 25;" xml:space="preserve">
<path d="M13.1,0.4c-6.6,0-9.9,4.7-9.9,8.7c0,2.4,0.9,4.5,2.8,5.3c0.3,0.1,0.6,0,0.7-0.3C6.8,13.9,6.9,13.2,7,13c0-0.4,0-0.5-0.2-0.8
	c-0.6-0.7-0.9-1.5-0.9-2.7c0-3.5,2.6-6.7,6.8-6.7c3.7,0,5.8,2.3,5.8,5.3c0,4-1.8,7.4-4.4,7.4c-1.5,0-2.5-1.2-2.2-2.7
	c0.4-1.8,1.2-3.7,1.2-4.9c0-1.1-0.6-2.1-1.9-2.1c-1.5,0-2.7,1.5-2.7,3.6c0,1.3,0.4,2.2,0.4,2.2S7.4,18,7.1,19.2
	c-0.5,2.2-0.1,5,0,5.3c0,0.2,0.2,0.2,0.3,0.1c0.1-0.2,1.9-2.4,2.5-4.6c0.2-0.6,1-3.8,1-3.8c0.5,0.9,1.9,1.7,3.4,1.7
	c4.5,0,7.5-4.1,7.5-9.5C21.8,4.2,18.3,0.4,13.1,0.4z"/>
</svg>
