<?xml version="1.0" encoding="utf-8"?>
<!-- Generator: Adobe Illustrator 21.0.0, SVG Export Plug-In . SVG Version: 6.00 Build 0)  -->
<svg version="1.1" id="Layer_1" xmlns="http://www.w3.org/2000/svg" xmlns:xlink="http://www.w3.org/1999/xlink" x="0px" y="0px"
	 viewBox="0 0 25 25" style="enable-background:new 0 0 25 25;" xml:space="preserve">
<title>skype</title>
<path d="M23.5,14.3c0.1-0.6,0.1-1.2,0.1-1.7c0-6.2-5-11.2-11.2-11.2c-0.6,0-1.2,0-1.7,0.1c-1-0.6-2.2-1-3.5-1c-3.7,0-6.8,3-6.8,6.8
	c0,1.3,0.4,2.5,1,3.5c-0.1,0.6-0.1,1.2-0.1,1.7c0,6.2,5,11.2,11.2,11.2c0.6,0,1.2,0,1.7-0.1c1,0.6,2.2,1,3.5,1c3.7,0,6.8-3,6.8-6.8
	C24.6,16.5,24.2,15.4,23.5,14.3L23.5,14.3z M17.8,17.6c-0.5,0.7-1.2,1.2-2.1,1.6s-2,0.6-3.2,0.6c-1.5,0-2.7-0.3-3.7-0.8
	c-0.7-0.4-1.3-0.9-1.7-1.5c-0.4-0.6-0.7-1.2-0.7-1.9c0-0.4,0.1-0.7,0.4-0.9c0.3-0.3,0.6-0.4,1-0.4c0.3,0,0.6,0.1,0.8,0.3
	s0.4,0.5,0.6,0.9c0.2,0.4,0.4,0.8,0.6,1.1c0.2,0.3,0.5,0.5,0.9,0.7s0.9,0.3,1.6,0.3c0.9,0,1.6-0.2,2.2-0.6c0.6-0.4,0.8-0.9,0.8-1.4
	c0-0.5-0.1-0.8-0.4-1.1c-0.3-0.3-0.7-0.5-1.2-0.6c-0.5-0.2-1.1-0.3-1.9-0.5c-1.1-0.2-2-0.5-2.7-0.8S7.8,12,7.3,11.4
	C7,10.8,6.8,10.1,6.8,9.3S7,7.7,7.5,7.1s1.1-1.1,2-1.4s1.9-0.5,3-0.5c0.9,0,1.7,0.1,2.4,0.3c0.7,0.2,1.2,0.5,1.7,0.9
	c0.4,0.4,0.8,0.7,1,1.1s0.3,0.8,0.3,1.2c0,0.3-0.1,0.7-0.4,0.9c-0.3,0.3-0.6,0.4-1,0.4s-0.6-0.1-0.8-0.3c-0.2-0.1-0.4-0.3-0.7-0.7
	c-0.3-0.5-0.6-0.9-1-1.2c-0.4-0.3-1-0.4-1.8-0.4s-1.4,0.2-1.9,0.5c-0.4,0.2-0.6,0.6-0.6,1c0,0.3,0.1,0.5,0.2,0.7s0.4,0.4,0.7,0.5
	s0.6,0.3,0.9,0.3c0.3,0.1,0.8,0.2,1.5,0.4c0.8,0.2,1.6,0.4,2.3,0.6c0.7,0.2,1.3,0.5,1.8,0.8s0.9,0.7,1.1,1.2
	c0.3,0.5,0.4,1.1,0.4,1.8C18.5,16.1,18.3,16.9,17.8,17.6L17.8,17.6z"/>
</svg>
