<?xml version="1.0" encoding="utf-8"?>
<!-- Generator: Adobe Illustrator 21.0.0, SVG Export Plug-In . SVG Version: 6.00 Build 0)  -->
<svg version="1.1" id="Capa_1" xmlns="http://www.w3.org/2000/svg" xmlns:xlink="http://www.w3.org/1999/xlink" x="0px" y="0px"
	 viewBox="0 0 57 57" style="enable-background:new 0 0 57 57;" xml:space="preserve">
<style type="text/css">
	.st0{fill:#518DF7;}
	.st1{fill:#FB3F1D;}
	.st2{fill:#28B346;}
	.st3{fill:#FABA00;}
</style>
<g>
	<path class="st0" d="M36.7,42.4c2.4-1.5,4.4-3.5,5.8-6c0.4-0.7,0.8-1.4,1-2.3c-0.3,0-0.5,0-0.7,0c-4.4,0-8.7,0-13.1,0
		c-0.5,0-0.7-0.1-0.7-0.6c0-3.2,0-6.3,0-9.5c0-0.4,0.1-0.6,0.6-0.6c8.3,0,16.6,0,24.9,0c0.4,0,0.6,0.2,0.6,0.6
		c1.2,8.2-0.7,15.5-5.9,21.9c-1.1,1.4-2.4,2.7-3.8,3.7c-0.3,0-0.5-0.2-0.7-0.3c-2.6-2.1-5.2-4.2-7.7-6.3
		C36.9,42.8,36.7,42.7,36.7,42.4z"/>
	<path class="st1" d="M4.4,16.1c2-3.9,4.8-7.1,8.3-9.6c3.8-2.7,8.1-4.4,12.7-4.9c7.4-0.8,14,1.2,19.8,5.7c0.3,0.2,0.5,0.3,0.1,0.7
		c-2.7,2.2-5.3,4.4-8,6.5c-0.3,0.3-0.5,0.3-0.9,0.1c-8.6-5-19.6-1.1-23.1,8.2c0,0.1-0.1,0.3-0.2,0.4c-0.3,0.1-0.4-0.1-0.6-0.3
		c-2.6-2.1-5.2-4.3-7.9-6.4C4.7,16.4,4.5,16.3,4.4,16.1z"/>
	<path class="st2" d="M36.7,42.4c1.9,1.6,3.8,3.2,5.8,4.8c1,0.8,2,1.6,3,2.4c-1.5,1.4-3.2,2.4-5,3.3c-4.1,2-8.5,3-13,2.7
		c-10-0.6-17.6-5.3-22.6-14c0-0.1-0.1-0.2-0.1-0.3c0-0.3,0.3-0.4,0.4-0.5c2.5-2.1,5.1-4.1,7.6-6.2c0.2-0.2,0.4-0.4,0.7-0.4
		c1,2.4,2.4,4.6,4.4,6.3c3.3,2.9,7.1,4.2,11.5,4.1c2.5-0.1,4.8-0.8,7-2C36.4,42.5,36.6,42.4,36.7,42.4z"/>
	<path class="st3" d="M13.4,34.2c-2.9,2.4-5.8,4.8-8.8,7.1c-1.4-2.5-2.3-5.2-2.8-8.1c-1-6-0.2-11.7,2.6-17.2
		c1.7,1.4,3.4,2.8,5.2,4.2c1.2,1,2.5,2,3.7,3C12.1,26.9,12.1,30.5,13.4,34.2z"/>
</g>
</svg>
