<?xml version="1.0" encoding="utf-8"?>
<!-- Generator: Adobe Illustrator 21.0.0, SVG Export Plug-In . SVG Version: 6.00 Build 0)  -->
<svg version="1.1" id="Capa_1" xmlns="http://www.w3.org/2000/svg" xmlns:xlink="http://www.w3.org/1999/xlink" x="0px" y="0px"
	 viewBox="0 0 57 57" style="enable-background:new 0 0 57 57;" xml:space="preserve">
<style type="text/css">
	.st0{display:none;}
	.st1{display:inline;fill:#0079C0;}
</style>
<g transform="translate(0.000000,512.000000) scale(0.100000,-0.100000)" class="st0">
	<path class="st1" d="M69.7,5104c-26.6-4.9-48.9-27.4-53.8-54.3c-2.1-12.2-2.1-417.9,0-430c4.5-25.4,24.1-46.5,49.6-53.5
		c6.1-1.7,21.4-1.8,219.8-1.8c200.3,0,213.6,0.1,220,1.9c18.5,5.1,34.5,18,43.1,34.9c7.9,15.6,7.3-4.2,7.3,233.5
		c0,198.4-0.1,213.6-1.8,219.8c-7.1,25.5-28.1,45.1-53.5,49.6C488.5,5106.2,81.3,5106.1,69.7,5104z M231.6,5032.3
		c6.9-3.4,12.8-9.4,16.1-16.5l2.2-4.9V4849v-161.9l-3-6c-3.4-6.9-9.4-12.8-16.5-16.1c-4.8-2.2-5.8-2.2-63.1-2.2h-58.2l-5.3,2.5
		c-6.7,3.4-13.1,9.7-16.4,16.5l-2.6,5.3l-0.3,159.1c-0.3,174.7-0.6,164.4,6,174.9c3.6,5.6,9.4,9.8,17.4,12.7
		c5.1,1.7,9.7,1.9,61.6,1.6l56.1-0.2L231.6,5032.3z M467.5,5031.7c7.9-3.9,11.6-7.6,15.6-16.1l2.8-5.8l0.3-90.9
		c0.3-100.3,0.4-97.3-6.3-107.2c-3.9-5.8-12.5-11.5-19.4-13c-3.5-0.7-24.1-1.1-60.3-0.8l-55,0.3l-6,3c-7.4,3.7-13.9,10.7-16.7,18.4
		c-2.1,5.7-2.1,7.2-1.9,98.5c0.3,92.3,0.3,92.8,2.5,97.7c4.3,9.4,13,16.6,23.1,19c1.8,0.4,28.3,0.7,58.8,0.6l55.6-0.2L467.5,5031.7z
		"/>
</g>
<g>
	<path d="M55.6,36.1c-0.1,0.3-0.2,0.6-0.3,0.9c-0.7,2.2-2.7,3.9-5.1,3.9c-4.8,0.1-9.5,0.1-14.3,0c-3,0-5.4-2.6-5.4-5.6
		c0-3,2.4-5.5,5.4-5.5c4.7,0,9.4,0,14.1,0c2.7,0,4.9,1.9,5.4,4.6c0,0.1,0.1,0.2,0.1,0.2C55.6,35.1,55.6,35.6,55.6,36.1z" fill="#ffb20f"/>
	<path d="M20.9,55.6c-0.9-0.4-1.8-0.6-2.6-1.1c-1.5-1-2.2-2.5-2.3-4.2c0-4.8-0.1-9.5,0-14.3c0-3,2.6-5.4,5.6-5.4
		c3,0,5.5,2.4,5.5,5.4c0,4.7,0,9.4,0,14.1c0,2.7-1.9,4.9-4.6,5.4c-0.1,0-0.2,0.1-0.2,0.1C21.9,55.6,21.4,55.6,20.9,55.6z" fill="#ff185b"/>
	<path d="M55.6,21.5c-0.2,0.7-0.4,1.4-0.8,2.1c-1,1.8-2.6,2.7-4.6,2.8c-1.4,0.1-2.8,0-4.2,0c-1,0-1.6-0.7-1.6-1.7
		c0-1.6-0.1-3.3,0.1-4.8c0.4-2.7,2.8-4.7,5.5-4.7c2.7,0,5,1.9,5.5,4.6c0,0.1,0.1,0.2,0.1,0.3C55.6,20.5,55.6,21,55.6,21.5z" fill="#00b67b"/>
	<path d="M35.5,55.6c-0.7-0.3-1.5-0.5-2.2-0.8c-1.7-1-2.6-2.5-2.7-4.5c-0.1-1.4,0-2.9,0-4.3c0-0.8,0.6-1.5,1.4-1.6
		c1.7,0,3.5-0.1,5.2,0.1c2.7,0.3,4.7,2.7,4.7,5.5c0,2.7-1.9,5-4.6,5.5c-0.1,0-0.2,0.1-0.3,0.1C36.5,55.6,36,55.6,35.5,55.6z" fill="#ffb20f"/>
	<path d="M29.8,13.9c0-2.3,0-4.7,0-7c0.1-3.1,2.6-5.5,5.7-5.5C38.5,1.5,41,4,41,7.2c0,4.5,0,9,0,13.5c0,0.5-0.1,1-0.2,1.5
		c-0.7,2.7-3.2,4.5-6.1,4.2c-2.7-0.3-4.8-2.6-4.9-5.4C29.7,18.6,29.8,16.3,29.8,13.9z" fill="#00b67b"/>
	<path d="M13.9,27.2c-2.3,0-4.7,0-7,0c-3-0.1-5.4-2.6-5.4-5.6c0-3.1,2.5-5.6,5.7-5.6c3.8,0,7.5,0,11.3,0c1.1,0,2.3,0,3.4,0.1
		c2.8,0.4,4.8,3,4.7,6c-0.1,2.7-2.5,5.1-5.3,5.1C18.7,27.3,16.3,27.2,13.9,27.2C13.9,27.2,13.9,27.2,13.9,27.2z" fill="#00c5f1"/>
	<path d="M26.4,8.8c0,0.8,0,1.5,0,2.3c0,0.8-0.6,1.5-1.3,1.5c-1.8,0-3.5,0.1-5.3-0.1c-2.8-0.4-4.9-3.1-4.6-5.9
		C15.5,3.5,18,1.4,21,1.4c2.9,0.1,5.3,2.4,5.4,5.3C26.4,7.4,26.4,8.1,26.4,8.8C26.4,8.8,26.4,8.8,26.4,8.8z" fill="#00c5f1"/>
	<path d="M8.8,30.6c0.7,0,1.4,0,2.2,0c1,0,1.7,0.6,1.7,1.7c0,1.6,0.1,3.3-0.1,4.9c-0.4,2.8-3.1,4.9-5.9,4.6C3.6,41.5,1.4,39,1.4,36
		c0.1-2.9,2.4-5.3,5.3-5.4C7.4,30.6,8.1,30.6,8.8,30.6C8.8,30.6,8.8,30.6,8.8,30.6z" fill="#ff185b"/>
</g>
</svg>
