<?xml version="1.0" encoding="utf-8"?>
<!-- Generator: Adobe Illustrator 21.0.0, SVG Export Plug-In . SVG Version: 6.00 Build 0)  -->
<svg version="1.1" id="Capa_1" xmlns="http://www.w3.org/2000/svg" xmlns:xlink="http://www.w3.org/1999/xlink" x="0px" y="0px"
	 viewBox="0 0 57 57" style="enable-background:new 0 0 57 57;" xml:space="preserve">
<style type="text/css">
	.st0{fill:#0079C0;}
</style>
<g transform="translate(0.000000,512.000000) scale(0.100000,-0.100000)">
	<path class="st0" d="M69.7,5104c-26.6-4.9-48.9-27.4-53.8-54.3c-2.1-12.2-2.1-417.9,0-430c4.5-25.4,24.1-46.5,49.6-53.5
		c6.1-1.7,21.4-1.8,219.8-1.8c200.3,0,213.6,0.1,220,1.9c18.5,5.1,34.5,18,43.1,34.9c7.9,15.6,7.3-4.2,7.3,233.5
		c0,198.4-0.1,213.6-1.8,219.8c-7.1,25.5-28.1,45.1-53.5,49.6C488.5,5106.2,81.3,5106.1,69.7,5104z M231.6,5032.3
		c6.9-3.4,12.8-9.4,16.1-16.5l2.2-4.9V4849v-161.9l-3-6c-3.4-6.9-9.4-12.8-16.5-16.1c-4.8-2.2-5.8-2.2-63.1-2.2h-58.2l-5.3,2.5
		c-6.7,3.4-13.1,9.7-16.4,16.5l-2.6,5.3l-0.3,159.1c-0.3,174.7-0.6,164.4,6,174.9c3.6,5.6,9.4,9.8,17.4,12.7
		c5.1,1.7,9.7,1.9,61.6,1.6l56.1-0.2L231.6,5032.3z M467.5,5031.7c7.9-3.9,11.6-7.6,15.6-16.1l2.8-5.8l0.3-90.9
		c0.3-100.3,0.4-97.3-6.3-107.2c-3.9-5.8-12.5-11.5-19.4-13c-3.5-0.7-24.1-1.1-60.3-0.8l-55,0.3l-6,3c-7.4,3.7-13.9,10.7-16.7,18.4
		c-2.1,5.7-2.1,7.2-1.9,98.5c0.3,92.3,0.3,92.8,2.5,97.7c4.3,9.4,13,16.6,23.1,19c1.8,0.4,28.3,0.7,58.8,0.6l55.6-0.2L467.5,5031.7z
		"/>
</g>
</svg>
